<svg width="30" height="30" viewBox="0 0 30 30" fill="none" xmlns="http://www.w3.org/2000/svg">
<path fill-rule="evenodd" clip-rule="evenodd" d="M19.1523 21.3535C19.9985 20.5074 20.5056 20.0003 21.3517 19.1542L23.7898 22.36L23.7494 22.4004C23.4195 22.446 23.1027 22.5972 22.8485 22.8502C22.5942 23.1044 22.4443 23.4225 22.3987 23.751L22.3582 23.7914L19.1523 21.3535ZM20.5095 17.0956L18.0454 14.6316C17.2879 15.2065 16.2045 15.1492 15.5135 14.4582C14.8238 13.7686 14.7652 12.6839 15.3414 11.9264L7.41456 4L4.49023 4.4902L4 7.41438L17.0962 20.5099L16.709 20.8971L16.3713 23.2385L17.679 23.4262L17.9528 21.5203L21.521 17.9522L23.4271 17.6784L23.2394 16.3708L20.8978 16.7084L20.5106 17.0957L20.5095 17.0956ZM23.2917 23.2919C23.911 22.6726 24.9162 22.6726 25.5355 23.2919C26.1548 23.9111 26.1548 24.9163 25.5355 25.5356C24.9162 26.1548 23.911 26.1548 23.2917 25.5356C22.6724 24.9163 22.6724 23.9111 23.2917 23.2919Z" fill="black"/>
</svg>
